<?xml version="1.0" encoding="UTF-8" standalone="no"?>
<svg width="24px" height="24px" viewBox="0 0 24 24" version="1.1" xmlns="http://www.w3.org/2000/svg" xmlns:xlink="http://www.w3.org/1999/xlink">
    <!-- Generator: Sketch 48.2 (47327) - http://www.bohemiancoding.com/sketch -->
    <title>Combined Shape Copy 4</title>
    <desc>Created with Sketch.</desc>
    <defs></defs>
    <g id="首页_发布活动开-copy-2" stroke="none" stroke-width="1" fill="none" fill-rule="evenodd" transform="translate(-810.000000, -1247.000000)">
        <path d="M810,1259 C810,1252.37258 815.371126,1247 822,1247 C828.627417,1247 834,1252.37113 834,1259 C834,1265.62742 828.628874,1271 822,1271 C815.372583,1271 810,1265.62887 810,1259 Z M812,1259 C812,1264.52406 816.477153,1269 822,1269 C827.524062,1269 832,1264.52285 832,1259 C832,1253.47594 827.522847,1249 822,1249 C816.475938,1249 812,1253.47715 812,1259 Z M816,1259 C816,1255.68629 818.693034,1253 822,1253 C825.313708,1253 828,1255.69303 828,1259 C828,1262.31371 825.306966,1265 822,1265 C818.686292,1265 816,1262.30697 816,1259 Z" id="Combined-Shape-Copy-4" fill="#1996F9"></path>
    </g>
</svg>