<?xml version="1.0" encoding="UTF-8" standalone="no"?>
<svg width="24px" height="24px" viewBox="0 0 24 24" version="1.1" xmlns="http://www.w3.org/2000/svg" xmlns:xlink="http://www.w3.org/1999/xlink">
    <!-- Generator: Sketch 48.2 (47327) - http://www.bohemiancoding.com/sketch -->
    <title>Combined Shape Copy 2</title>
    <desc>Created with Sketch.</desc>
    <defs></defs>
    <g id="首页_发布活动开-copy-2" stroke="none" stroke-width="1" fill="none" fill-rule="evenodd" transform="translate(-872.000000, -1058.000000)">
        <path d="M884,1082 C877.372583,1082 872,1076.62742 872,1070 C872,1063.37258 877.372583,1058 884,1058 C890.627417,1058 896,1063.37258 896,1070 C896,1076.62742 890.627417,1082 884,1082 Z M889.584615,1065.33846 C889.538462,1065.29231 889.538462,1065.29231 889.492308,1065.29231 C889.446154,1065.29231 889.446154,1065.24615 889.4,1065.24615 C889.261538,1065.2 889.076923,1065.15385 888.892308,1065.10769 L886.630769,1065.10769 L886.630769,1064.50769 C886.630769,1064.23077 886.4,1064 886.123077,1064 L882.338462,1064 C882.061538,1064 881.830769,1064.23077 881.830769,1064.50769 L881.830769,1065.15385 L879.753846,1065.15385 C878.784615,1065.15385 878,1065.93846 878,1066.90769 L878,1074.24615 C878,1074.89231 878.369231,1075.49231 878.876923,1075.76923 L878.969231,1075.76923 C879.153846,1075.90769 879.338462,1076 879.569231,1076 L888.707692,1076 C889.676923,1076 890.461538,1075.21538 890.461538,1074.24615 L890.461538,1066.90769 C890.507692,1066.26154 890.138462,1065.66154 889.584615,1065.33846 Z M882.846154,1065.29231 C882.846154,1065.2 882.984615,1065.15385 883.123077,1065.15385 L885.384615,1065.15385 C885.523077,1065.15385 885.661538,1065.24615 885.661538,1065.29231 L885.661538,1065.56923 C885.661538,1065.66154 885.523077,1065.70769 885.384615,1065.70769 L883.123077,1065.70769 C882.984615,1065.70769 882.846154,1065.61538 882.846154,1065.56923 L882.846154,1065.29231 Z M882.615385,1066.90769 C883.769231,1066.90769 884.692308,1067.83077 884.692308,1068.93846 C884.692308,1070.09231 883.769231,1071.01538 882.615385,1071.01538 C881.461538,1071.01538 880.584615,1070.09231 880.584615,1068.93846 C880.538462,1067.83077 881.461538,1066.90769 882.615385,1066.90769 Z M879.430769,1074.2 C879.430769,1072.44615 880.861538,1071.01538 882.615385,1071.01538 L882.661538,1071.01538 C884.415385,1071.01538 885.846154,1072.44615 885.846154,1074.2 L879.430769,1074.2 Z M889.123077,1070.04615 L886.492308,1070.04615 C886.353846,1070.04615 886.215385,1069.90769 886.215385,1069.76923 C886.215385,1069.63077 886.353846,1069.49231 886.492308,1069.49231 L889.123077,1069.49231 C889.261538,1069.49231 889.4,1069.63077 889.4,1069.76923 C889.4,1069.90769 889.261538,1070.04615 889.123077,1070.04615 Z M889.123077,1068.33846 L886.492308,1068.33846 C886.353846,1068.33846 886.215385,1068.2 886.215385,1068.06154 C886.215385,1067.92308 886.353846,1067.78462 886.492308,1067.78462 L889.123077,1067.78462 C889.261538,1067.78462 889.4,1067.92308 889.4,1068.06154 C889.4,1068.2 889.261538,1068.33846 889.123077,1068.33846 Z" id="Combined-Shape-Copy-2" fill="#1996F9"></path>
    </g>
</svg>