<?xml version="1.0" encoding="UTF-8" standalone="no"?>
<svg width="24px" height="24px" viewBox="0 0 24 24" version="1.1" xmlns="http://www.w3.org/2000/svg" xmlns:xlink="http://www.w3.org/1999/xlink">
    <!-- Generator: Sketch 48.2 (47327) - http://www.bohemiancoding.com/sketch -->
    <title>Combined Shape Copy 6</title>
    <desc>Created with Sketch.</desc>
    <defs></defs>
    <g id="首页_发布活动开-copy-2" stroke="none" stroke-width="1" fill="none" fill-rule="evenodd" transform="translate(-1066.000000, -1110.000000)">
        <path d="M1077.99997,1110.00005 C1081.18549,1109.99047 1084.2433,1111.25167 1086.49582,1113.50418 C1088.74833,1115.7567 1090.00953,1118.81451 1089.99995,1122.00003 C1089.99995,1128.62743 1084.62737,1134 1077.99997,1134 C1071.37257,1134 1066,1128.62743 1066,1122.00003 C1066,1115.37263 1071.37257,1110.00005 1077.99997,1110.00005 Z M1081.99385,1116.00242 L1074.03364,1116.00242 C1073.46951,1116.00242 1073.01216,1116.45974 1073.01216,1117.0239 L1073.01216,1126.97511 C1073.01216,1127.53924 1073.46949,1127.99659 1074.03364,1127.99659 L1081.99385,1127.99659 C1082.55798,1127.99659 1083.01533,1127.53925 1083.01533,1126.97511 L1083.01533,1117.0239 C1083.01533,1116.45977 1082.55799,1116.00242 1081.99385,1116.00242 Z M1075.01125,1119.00101 L1078.00218,1119.00101 L1078.00218,1119.96054 L1075.01125,1119.96054 L1075.01125,1119.00101 Z M1081.01175,1125.94195 L1075.01125,1125.94195 L1075.01125,1124.98242 L1081.01175,1124.98242 L1081.01175,1125.94195 Z M1081.01175,1122.95125 L1075.01125,1122.95125 L1075.01125,1121.99172 L1081.01175,1121.99172 L1081.01175,1122.95125 Z" id="Combined-Shape-Copy-6" fill="#1996F9"></path>
    </g>
</svg>