<?xml version="1.0" encoding="UTF-8" standalone="no"?>
<svg width="24px" height="24px" viewBox="0 0 24 24" version="1.1" xmlns="http://www.w3.org/2000/svg" xmlns:xlink="http://www.w3.org/1999/xlink">
    <!-- Generator: Sketch 48.2 (47327) - http://www.bohemiancoding.com/sketch -->
    <title>Combined Shape Copy</title>
    <desc>Created with Sketch.</desc>
    <defs></defs>
    <g id="首页_发布活动开-copy-2" stroke="none" stroke-width="1" fill="none" fill-rule="evenodd" transform="translate(-775.000000, -1110.000000)">
        <path d="M787,1134 C780.372583,1134 775,1128.62742 775,1122 C775,1115.37258 780.372583,1110 787,1110 C793.627417,1110 799,1115.37258 799,1122 C799,1128.62742 793.627417,1134 787,1134 Z M783.865099,1122.79118 C785.516372,1122.56191 786.788623,1121.1452 786.788623,1119.43164 C786.788623,1117.55772 785.269869,1116.03765 783.394634,1116.03765 C781.522037,1116.03765 780.001963,1117.55772 780.001963,1119.43164 C780.001963,1121.14652 781.274215,1122.56191 782.925487,1122.79118 L782.925487,1124.42523 L780.728199,1124.42523 L780.728199,1125.3635 L782.925487,1125.3635 L782.925487,1127.56211 L783.865099,1127.56211 L783.865099,1125.3635 L786.062387,1125.3635 L786.062387,1124.42523 L783.865099,1124.42523 L783.865099,1122.79118 Z M786.466586,1124.60414 C786.467906,1126.47806 787.98666,1127.99813 789.861911,1127.99681 C791.735827,1127.99549 793.254581,1126.47674 793.253262,1124.60149 C793.251942,1122.8866 791.979691,1121.47121 790.328403,1121.24194 L790.327084,1117.79892 L791.224288,1118.69744 L791.888246,1118.03348 L789.856618,1116.00319 L787.827644,1118.03482 L788.491602,1118.69877 L789.390126,1117.80025 L789.391445,1121.24328 C787.737518,1121.47255 786.466586,1122.89058 786.466586,1124.60414 Z M780.942895,1119.43164 C780.942895,1118.07589 782.040204,1116.97725 783.395953,1116.97725 C784.751702,1116.97725 785.84901,1118.07589 785.84901,1119.4303 C785.84901,1120.78605 784.751702,1121.88336 783.395953,1121.88336 C782.040204,1121.88468 780.942895,1120.78605 780.942895,1119.43162 L780.942895,1119.43164 Z M792.313649,1124.60149 C792.314969,1125.95724 791.21634,1127.05588 789.860592,1127.0572 C788.504843,1127.05852 787.407534,1125.95987 787.406215,1124.60414 C787.406215,1123.24839 788.503539,1122.15108 789.859272,1122.14975 C791.215021,1122.14843 792.313649,1123.24706 792.313649,1124.60149 Z" id="Combined-Shape-Copy" fill="#1996F9"></path>
    </g>
</svg>