<?xml version="1.0" encoding="UTF-8" standalone="no"?>
<svg width="24px" height="24px" viewBox="0 0 24 24" version="1.1" xmlns="http://www.w3.org/2000/svg" xmlns:xlink="http://www.w3.org/1999/xlink">
    <!-- Generator: Sketch 48.2 (47327) - http://www.bohemiancoding.com/sketch -->
    <title>Combined Shape Copy 3</title>
    <desc>Created with Sketch.</desc>
    <defs></defs>
    <g id="首页_发布活动开-copy-2" stroke="none" stroke-width="1" fill="none" fill-rule="evenodd" transform="translate(-969.000000, -1058.000000)">
        <path d="M981,1082 C974.372583,1082 969,1076.62742 969,1070 C969,1063.37258 974.372583,1058 981,1058 C987.627417,1058 993,1063.37258 993,1070 C993,1076.62742 987.627417,1082 981,1082 Z M987.103448,1066.65698 L985.459845,1066.65698 C985.212269,1066.65698 985.011569,1066.45779 985.011569,1066.21207 L985.011569,1065.33472 C985.011569,1064.59757 984.409469,1064 983.666741,1064 L979.333259,1064 C978.590531,1064 977.988431,1064.59757 977.988431,1065.33472 L977.988431,1066.21207 C977.988431,1066.45779 977.787731,1066.65698 977.540155,1066.65698 L975.896552,1066.65698 C975.403448,1066.65698 975,1067.05739 975,1067.54679 L975,1075.11019 C975,1075.59958 975.403448,1076 975.896552,1076 L987.103448,1076 C987.596552,1076 988,1075.59958 988,1075.11019 L988,1067.54679 C988,1067.05739 987.596552,1066.65698 987.103448,1066.65698 Z M978.884983,1065.33472 C978.884983,1065.21672 978.932212,1065.10356 979.01628,1065.02012 C979.100348,1064.93669 979.214368,1064.88981 979.333259,1064.88981 L983.666517,1064.88981 C983.785407,1064.88981 983.899428,1064.93669 983.983496,1065.02012 C984.067564,1065.10356 984.114793,1065.21672 984.114793,1065.33472 L984.114793,1066.21207 C984.114793,1066.45779 983.914093,1066.65698 983.666517,1066.65698 L979.333259,1066.65698 C979.085683,1066.65698 978.884983,1066.45779 978.884983,1066.21207 L978.884983,1065.33472 Z M977.464845,1073.99792 C977.464845,1074.24262 977.263121,1074.44283 977.016569,1074.44283 C976.770017,1074.44283 976.568293,1074.24262 976.568293,1073.99792 L976.568293,1068.65905 C976.568293,1068.41436 976.770017,1068.21415 977.016569,1068.21415 C977.263121,1068.21415 977.464845,1068.41436 977.464845,1068.65905 L977.464845,1073.99792 Z M986.431707,1073.99792 C986.431707,1074.24262 986.229983,1074.44283 985.983431,1074.44283 C985.736879,1074.44283 985.535155,1074.24262 985.535155,1073.99792 L985.535155,1068.65905 C985.535155,1068.41436 985.736879,1068.21415 985.983431,1068.21415 C986.229983,1068.21415 986.431707,1068.41436 986.431707,1068.65905 L986.431707,1073.99792 Z" id="Combined-Shape-Copy-3" fill="#1996F9"></path>
    </g>
</svg>