<?xml version="1.0" encoding="UTF-8" standalone="no"?>
<svg width="24px" height="24px" viewBox="0 0 24 24" version="1.1" xmlns="http://www.w3.org/2000/svg" xmlns:xlink="http://www.w3.org/1999/xlink">
    <!-- Generator: Sketch 48.2 (47327) - http://www.bohemiancoding.com/sketch -->
    <title>Combined Shape Copy 7</title>
    <desc>Created with Sketch.</desc>
    <defs></defs>
    <g id="首页_发布活动开-copy-2" stroke="none" stroke-width="1" fill="none" fill-rule="evenodd" transform="translate(-969.000000, -1110.000000)">
        <path d="M981,1134 C974.372583,1134 969,1128.62742 969,1122 C969,1115.37258 974.372583,1110 981,1110 C987.627417,1110 993,1115.37258 993,1122 C993,1128.62742 987.627417,1134 981,1134 Z M986.714894,1117.91489 L982.003404,1117.91489 C981.70383,1117.91489 981.431489,1117.86043 981.295319,1117.58809 L980.668936,1116.47149 C980.532766,1116.19915 980.260426,1116.00851 979.960851,1116.00851 L975.821277,1116.00851 C975.358298,1116.00851 975.004255,1116.36255 975.004255,1116.82553 L975.004255,1127.17447 C975.004255,1127.63745 975.358298,1127.99149 975.821277,1127.99149 L986.714894,1127.99149 C987.177872,1127.99149 987.531915,1127.63745 987.531915,1127.17447 L987.531915,1118.73191 C987.531915,1118.29617 987.150638,1117.91489 986.714894,1117.91489 Z M984.808511,1122.27234 L977.72766,1122.27234 C977.564255,1122.27234 977.455319,1122.1634 977.455319,1122 C977.455319,1121.8366 977.564255,1121.72766 977.72766,1121.72766 L984.808511,1121.72766 C984.971915,1121.72766 985.080851,1121.8366 985.080851,1122 C985.080851,1122.1634 984.944681,1122.27234 984.808511,1122.27234 Z" id="Combined-Shape-Copy-7" fill="#1996F9"></path>
    </g>
</svg>