<?xml version="1.0" encoding="UTF-8" standalone="no"?>
<svg width="24px" height="24px" viewBox="0 0 24 24" version="1.1" xmlns="http://www.w3.org/2000/svg" xmlns:xlink="http://www.w3.org/1999/xlink">
    <!-- Generator: Sketch 48.2 (47327) - http://www.bohemiancoding.com/sketch -->
    <title>Shape</title>
    <desc>Created with Sketch.</desc>
    <defs></defs>
    <g id="首页_发布活动开-copy" stroke="none" stroke-width="1" fill="none" fill-rule="evenodd" transform="translate(-1066.000000, -1058.000000)">
        <path d="M1077.99997,1058.00005 C1071.37257,1058.00005 1066,1063.37263 1066,1070.00003 C1066,1076.62743 1071.37257,1082 1077.99997,1082 C1084.62737,1082 1089.99995,1076.62743 1089.99995,1070.00003 C1090.00953,1066.81451 1088.74833,1063.7567 1086.49582,1061.50418 C1084.2433,1059.25167 1081.18549,1057.99047 1077.99997,1058.00005 L1077.99997,1058.00005 Z M1081.2737,1064.00004 C1081.49213,1064.00004 1082.4737,1064.87377 1082.4737,1065.6922 C1082.50034,1065.91287 1082.43221,1066.1345 1082.28622,1066.3021 C1082.14023,1066.46971 1081.93004,1066.56759 1081.7078,1066.57146 C1081.81559,1066.52354 1081.88111,1066.4125 1081.87093,1066.29497 C1081.87093,1066.07653 1081.6525,1065.53183 1081.27093,1065.53183 C1080.88937,1065.53183 1080.6737,1066.01847 1080.6737,1066.29497 C1080.66352,1066.4125 1080.72904,1066.52354 1080.83683,1066.57146 C1080.61616,1066.56666 1080.4077,1066.4692 1080.26251,1066.30296 C1080.11731,1066.13672 1080.04878,1065.91704 1080.0737,1065.69773 C1080.0737,1064.9346 1080.99997,1064.00557 1081.2737,1064.00557 L1081.2737,1064.00004 Z M1080.0737,1067.16317 L1082.4737,1067.16317 L1082.4737,1069.45533 L1080.0737,1069.45533 L1080.0737,1067.16317 Z M1077.99997,1064.00004 C1078.21841,1064.00004 1079.19997,1064.87377 1079.19997,1065.6922 C1079.2265,1065.91147 1079.15946,1066.13177 1079.01529,1066.29909 C1078.87112,1066.46641 1078.66315,1066.56529 1078.44237,1066.57146 C1078.55016,1066.52354 1078.61568,1066.4125 1078.6055,1066.29497 C1078.6055,1066.07653 1078.38707,1065.53183 1078.0055,1065.53183 C1077.62394,1065.53183 1077.39997,1066.01847 1077.39997,1066.29497 C1077.3898,1066.4125 1077.45531,1066.52354 1077.56311,1066.57146 C1077.34244,1066.56666 1077.13398,1066.4692 1076.98878,1066.30296 C1076.84358,1066.13672 1076.77505,1065.91704 1076.79998,1065.69773 C1076.79998,1064.9346 1077.72624,1064.00557 1077.99997,1064.00557 L1077.99997,1064.00004 Z M1079.19997,1067.16317 L1079.19997,1069.45533 L1076.79998,1069.45533 L1076.79998,1067.16317 L1079.19997,1067.16317 Z M1074.72625,1064.00004 C1074.94468,1064.00004 1075.92624,1064.87377 1075.92624,1065.6922 C1075.95285,1065.9124 1075.88508,1066.13359 1075.7397,1066.3011 C1075.59431,1066.4686 1075.38487,1066.56682 1075.16311,1066.57146 C1075.27091,1066.52354 1075.33642,1066.4125 1075.32625,1066.29497 C1075.32625,1066.07653 1075.10781,1065.53183 1074.72625,1065.53183 C1074.34468,1065.53183 1074.12625,1066.01847 1074.12625,1066.29497 C1074.11696,1066.41386 1074.18495,1066.52532 1074.29491,1066.57146 C1074.07424,1066.56666 1073.86578,1066.4692 1073.72058,1066.30296 C1073.57539,1066.13672 1073.50686,1065.91704 1073.53178,1065.69773 C1073.53178,1064.9346 1074.45805,1064.00557 1074.73178,1064.00557 L1074.72625,1064.00004 Z M1075.92624,1067.16317 L1075.92624,1069.45533 L1073.52625,1069.45533 L1073.52625,1067.16317 L1075.92624,1067.16317 Z M1072.33178,1071.14473 C1072.32981,1070.8308 1072.45748,1070.52997 1072.68463,1070.31329 C1072.91179,1070.0966 1073.2183,1069.98326 1073.53178,1070.00003 L1082.4737,1070.00003 C1082.78718,1069.98326 1083.09369,1070.0966 1083.32084,1070.31329 C1083.548,1070.52997 1083.67566,1070.8308 1083.67369,1071.14473 L1083.67369,1073.70785 L1072.33731,1073.70785 L1072.33731,1071.14473 L1072.33178,1071.14473 Z M1083.66816,1076.00001 L1072.33178,1076.00001 C1071.86906,1075.97395 1071.50718,1075.59113 1071.50718,1075.12767 C1071.50718,1074.6642 1071.86906,1074.28138 1072.33178,1074.25532 L1083.72623,1074.25532 C1083.95886,1074.25231 1084.18285,1074.3434 1084.34736,1074.50792 C1084.51187,1074.67243 1084.60296,1074.89641 1084.59996,1075.12905 C1084.56293,1075.61568 1084.16166,1075.9942 1083.67369,1076.00278 L1083.66816,1076.00001 Z" id="Shape" fill="#1996F9"></path>
    </g>
</svg>