<?xml version="1.0" encoding="UTF-8" standalone="no"?>
<svg width="16px" height="17px" viewBox="0 0 16 17" version="1.1" xmlns="http://www.w3.org/2000/svg" xmlns:xlink="http://www.w3.org/1999/xlink">
    <!-- Generator: Sketch 48.2 (47327) - http://www.bohemiancoding.com/sketch -->
    <title>删除 copy</title>
    <desc>Created with Sketch.</desc>
    <defs></defs>
    <g id="首页_发布活动开-copy" stroke="none" stroke-width="1" fill="none" fill-rule="evenodd" transform="translate(-675.000000, -1435.000000)">
        <g id="Group-3-Copy-6" transform="translate(361.000000, 1435.000000)">
            <g id="删除-copy" transform="translate(314.000000, 0.000000)">
                <circle id="Path" fill="#FFFFFF" cx="8" cy="8" r="8"></circle>
                <path d="M8.70710678,9 L11.1819805,11.4748737 L10.4748737,12.1819805 L8,9.70710678 L5.52512627,12.1819805 L4.81801948,11.4748737 L7.29289322,9 L4.81801948,6.52512627 L5.52512627,5.81801948 L8,8.29289322 L10.4748737,5.81801948 L11.1819805,6.52512627 L8.70710678,9 Z M8,17 C3.581722,17 0,13.418278 0,9 C0,4.581722 3.581722,1 8,1 C12.418278,1 16,4.581722 16,9 C16,13.418278 12.418278,17 8,17 Z M8,16 C11.8659932,16 15,12.8659932 15,9 C15,5.13400675 11.8659932,2 8,2 C4.13400675,2 1,5.13400675 1,9 C1,12.8659932 4.13400675,16 8,16 Z" id="Combined-Shape" fill="#999999"></path>
            </g>
        </g>
    </g>
</svg>