<!-- Generator: Adobe Illustrator 21.0.0, SVG Export Plug-In  -->
<svg version="1.1"
	 xmlns="http://www.w3.org/2000/svg" xmlns:xlink="http://www.w3.org/1999/xlink" xmlns:a="http://ns.adobe.com/AdobeSVGViewerExtensions/3.0/"
	 x="0px" y="0px" width="50.2px" height="50.2px" viewBox="0 0 50.2 50.2" style="enable-background:new 0 0 50.2 50.2;"
	 xml:space="preserve">
<style type="text/css">
	.st0{fill:#FF7070;}
	.st1{fill:#FFCC1C;}
	.st2{fill:#628CFF;}
	.st3{fill:#1FD14F;}
</style>
<defs>
</defs>
<title>营销</title>
<desc>Created with Sketch.</desc>
<g id="导航样式_1_">
	<g id="一级导航样式_1_" transform="translate(-292.000000, -491.000000)">
		<g id="营销_1_" transform="translate(292.000000, 491.000000)">
			<path id="Fill-1_1_" class="st0" d="M23.4,23.4H11.7C5.2,23.4,0,18.2,0,11.7l0,0C0,5.2,5.2,0,11.7,0l0,0
				c6.5,0,11.7,5.2,11.7,11.7V23.4z"/>
			<path id="Fill-3_1_" class="st1" d="M38.5,23.4H26.8V11.7C26.8,5.2,32,0,38.5,0l0,0c6.5,0,11.7,5.2,11.7,11.7l0,0
				C50.2,18.2,44.9,23.4,38.5,23.4"/>
			<path id="Fill-5_1_" class="st2" d="M0,38.5C0,32,5.2,26.8,11.7,26.8h11.7v11.7c0,6.5-5.2,11.7-11.7,11.7S0,44.9,0,38.5z"/>
			<path id="Fill-7_1_" class="st3" d="M38.5,50.2L38.5,50.2c-6.5,0-11.7-5.2-11.7-11.7V26.8h11.7c6.5,0,11.7,5.2,11.7,11.7l0,0
				C50.2,44.9,44.9,50.2,38.5,50.2"/>
		</g>
	</g>
</g>
</svg>
